HIERARCHY
ROOT Hips
{
	OFFSET 46.596298 -34.354015 99.067993
	CHANNELS 6 Xposition Yposition Zposition Xrotation Yrotation Zrotation
	JOINT spine
	{
		OFFSET 0.000000 -0.477356 8.301041
		CHANNELS 3 Xrotation Yrotation Zrotation
		JOINT spine1
		{
			OFFSET 0.000000 0.000000 10.456497
			CHANNELS 3 Xrotation Yrotation Zrotation
			JOINT spine2
			{
				OFFSET 0.000000 0.000000 10.019203
				CHANNELS 3 Xrotation Yrotation Zrotation
				JOINT Neck
				{
					OFFSET 0.000000 -1.226418 25.723503
					CHANNELS 3 Xrotation Yrotation Zrotation
					JOINT Head
					{
						OFFSET 0.000000 0.000000 7.771744
						CHANNELS 3 Xrotation Yrotation Zrotation
						End Site
						{
							OFFSET 0.000000 6.203938 18.811996
						}
					}
				}
				JOINT RightShoulder
				{
					OFFSET -4.218800 0.587437 10.820000
					CHANNELS 3 Xrotation Yrotation Zrotation
					JOINT RightArm
					{
						OFFSET 0.000000 -0.000004 14.191406
						CHANNELS 3 Xrotation Yrotation Zrotation
						JOINT RightArmRoll
						{
							OFFSET 0.000000 0.000000 7.164078
							CHANNELS 3 Xrotation Yrotation Zrotation
							JOINT RightForeArm
							{
								OFFSET 0.000000 -0.000004 20.866501
								CHANNELS 3 Xrotation Yrotation Zrotation
								JOINT RightForeArmRoll
								{
									OFFSET 0.000000 0.000000 8.039215
									CHANNELS 3 Xrotation Yrotation Zrotation
									JOINT RightHand
									{
										OFFSET 0.000000 -0.000004 16.132996
										CHANNELS 3 Xrotation Yrotation Zrotation
										End Site
										{
											OFFSET 0.000000 0.000000 0.100006
										}
									}
								}
							}
						}
					}
				}
				JOINT LeftShoulder
				{
					OFFSET 4.218800 0.587437 10.820000
					CHANNELS 3 Xrotation Yrotation Zrotation
					JOINT LeftArm
					{
						OFFSET 0.000000 -0.000004 14.191406
						CHANNELS 3 Xrotation Yrotation Zrotation
						JOINT LeftArmRoll
						{
							OFFSET 0.000000 0.000000 7.164078
							CHANNELS 3 Xrotation Yrotation Zrotation
							JOINT LeftForeArm
							{
								OFFSET 0.000000 -0.000004 20.866501
								CHANNELS 3 Xrotation Yrotation Zrotation
								JOINT LeftForeArmRoll
								{
									OFFSET 0.000000 0.000000 8.039215
									CHANNELS 3 Xrotation Yrotation Zrotation
									JOINT LeftHand
									{
										OFFSET 0.000000 -0.000004 16.132996
										CHANNELS 3 Xrotation Yrotation Zrotation
										End Site
										{
											OFFSET 0.000000 0.000000 0.100006
										}
									}
								}
							}
						}
					}
				}
			}
		}
	}
	JOINT RightUpLeg
	{
		OFFSET -7.357731 1.131809 -1.349213
		CHANNELS 3 Xrotation Yrotation Zrotation
		JOINT RightUpLegRoll
		{
			OFFSET 0.000000 -0.000004 18.916801
			CHANNELS 3 Xrotation Yrotation Zrotation
			JOINT RightLeg
			{
				OFFSET 0.000000 0.000004 -23.425598
				CHANNELS 3 Xrotation Yrotation Zrotation
				JOINT RightLegRoll
				{
					OFFSET 0.000000 -0.000004 23.502304
					CHANNELS 3 Xrotation Yrotation Zrotation
					JOINT RightFoot
					{
						OFFSET 0.000000 -0.000004 19.561714
						CHANNELS 3 Xrotation Yrotation Zrotation
						JOINT RightToeBase
						{
							OFFSET 0.000000 -0.000004 16.352600
							CHANNELS 3 Xrotation Yrotation Zrotation
							End Site
							{
								OFFSET 0.006931 0.912838 7.919434
							}
						}
					}
				}
			}
		}
	}
	JOINT LeftUpLeg
	{
		OFFSET 7.357731 1.131809 -1.349213
		CHANNELS 3 Xrotation Yrotation Zrotation
		JOINT LeftUpLegRoll
		{
			OFFSET 0.000000 -0.000004 18.916901
			CHANNELS 3 Xrotation Yrotation Zrotation
			JOINT LeftLeg
			{
				OFFSET 0.000000 -0.000004 23.425507
				CHANNELS 3 Xrotation Yrotation Zrotation
				JOINT LeftLegRoll
				{
					OFFSET 0.000000 -0.000004 23.719498
					CHANNELS 3 Xrotation Yrotation Zrotation
					JOINT LeftFoot
					{
						OFFSET 0.000000 -0.000004 19.344406
						CHANNELS 3 Xrotation Yrotation Zrotation
						JOINT LeftToeBase
						{
							OFFSET 0.000000 -0.000004 16.352600
							CHANNELS 3 Xrotation Yrotation Zrotation
							End Site
							{
								OFFSET -0.031063 0.912838 7.919434
							}
						}
					}
				}
			}
		}
	}
}
MOTION
Frames: 9
Frame Time: 0.041667
47.669598 -11.029716 74.710510 16.695745 -0.126719 -0.722674 2.844305 -0.183339 -0.103134 9.691156 -0.371358 -0.183586 11.336248 -0.373588 -0.179118 -20.348281 5.047598 1.088936 -4.851436 -2.659502 -0.433250 -9.840777 -50.711897 -11.095538 134.445676 -53.909040 113.576047 -0.000001 -0.000000 -0.000004 58.353994 -17.342460 8.749466 0.000006 0.000007 -3.009890 -4.999981 -8.000072 -0.000012 -10.931782 56.055854 12.751285 120.945547 65.245525 -95.674653 0.000002 0.000001 -0.000002 58.624176 13.215534 -7.788962 0.000009 -0.000007 3.007293 -4.999677 7.999698 -0.000035 -74.784882 -166.408461 6.636031 179.999991 0.000004 -0.972996 102.591989 -4.802539 -5.411834 -0.000006 -0.000001 1.640660 80.877240 7.713134 -1.983222 27.616970 -7.350667 0.273706 -75.541400 164.654988 -4.593232 0.000015 0.000011 -0.807627 -78.863495 3.079267 3.835127 -0.000009 0.000000 -1.723622 78.664552 -6.524246 -2.544588 30.176295 7.328783 -0.612316 
47.673798 -11.112421 74.860603 16.637852 -0.138683 -0.723224 2.837713 -0.183033 -0.103865 9.677984 -0.370683 -0.185111 11.323042 -0.372943 -0.180650 -20.351375 5.080629 1.085028 -4.801239 -2.690829 -0.445576 -9.853692 -50.727047 -11.112563 134.375981 -53.728280 113.713709 -0.000001 0.000000 -0.000007 57.915319 -17.447322 8.736357 0.000003 0.000006 -3.009889 -4.999981 -8.000075 -0.000012 -10.959885 56.136929 12.789494 120.885114 65.090221 -95.778588 -0.000001 -0.000001 -0.000000 58.263590 13.330812 -7.809727 0.000008 -0.000007 3.007289 -4.999675 7.999693 -0.000036 -74.489039 -166.425373 6.616081 179.999991 0.000006 -0.971001 102.844802 -4.849054 -5.426850 -0.000005 -0.000002 1.632130 80.846326 7.711840 -1.971431 27.627786 -7.350659 0.275086 -75.233038 164.687049 -4.596713 0.000012 0.000012 -0.806714 -78.612117 3.132561 3.862986 -0.000010 -0.000000 -1.713301 78.639048 -6.524578 -2.544089 30.192759 7.328598 -0.614936 
47.679897 -11.182419 75.018394 16.579659 -0.150943 -0.723702 2.831058 -0.182627 -0.104548 9.664661 -0.369807 -0.186571 11.309736 -0.372095 -0.182121 -20.354141 5.112563 1.080849 -4.751357 -2.721071 -0.457793 -9.866935 -50.742968 -11.130044 134.305671 -53.549595 113.848947 -0.000001 0.000000 -0.000006 57.476083 -17.550690 8.721547 0.000003 0.000005 -3.009889 -4.999977 -8.000074 -0.000010 -10.987373 56.217446 12.826950 120.825295 64.935011 -95.883165 0.000001 -0.000001 -0.000002 57.901262 13.445903 -7.829045 0.000010 -0.000006 3.007288 -4.999672 7.999699 -0.000038 -74.192472 -166.442052 6.596294 179.999991 0.000005 -0.968993 103.099260 -4.895629 -5.441575 -0.000006 -0.000002 1.623579 80.814450 7.710612 -1.959566 27.638290 -7.350662 0.276436 -74.923699 164.719492 -4.600720 0.000015 0.000012 -0.805833 -78.359325 3.186004 3.890451 -0.000010 -0.000001 -1.702949 78.612595 -6.524996 -2.543358 30.209227 7.328409 -0.617526 
47.681297 -11.258812 75.181602 16.521469 -0.163260 -0.724024 2.824210 -0.182124 -0.105127 9.650990 -0.368736 -0.187861 11.296039 -0.371050 -0.183425 -20.355528 5.142045 1.076257 -4.702501 -2.748700 -0.469643 -9.880284 -50.761385 -11.147848 134.233831 -53.373670 113.981473 -0.000001 -0.000001 -0.000005 57.036468 -17.652677 8.705346 0.000004 0.000008 -3.009889 -4.999981 -8.000069 -0.000011 -11.012907 56.296847 12.861987 120.765053 64.781018 -95.987360 -0.000002 -0.000001 0.000002 57.538135 13.560458 -7.846835 0.000010 -0.000005 3.007292 -4.999674 7.999698 -0.000036 -73.895407 -166.458581 6.576823 179.999991 0.000005 -0.967997 103.355440 -4.942061 -5.455044 -0.000007 -0.000002 1.615010 80.781617 7.709412 -1.947940 27.648705 -7.350661 0.277764 -74.614100 164.752468 -4.604555 0.000011 0.000012 -0.804972 -78.105119 3.239536 3.917625 -0.000008 -0.000001 -1.692580 78.585063 -6.525538 -2.542297 30.225800 7.328231 -0.620117 
47.670395 -11.341415 75.352783 16.463479 -0.175393 -0.724103 2.817103 -0.181527 -0.105549 9.636769 -0.367477 -0.188877 11.281837 -0.369815 -0.184455 -20.354672 5.167716 1.071123 -4.655409 -2.772189 -0.480868 -9.893547 -50.784130 -11.165838 134.158521 -53.201897 114.109600 0.000000 0.000000 -0.000005 56.596467 -17.753535 8.687789 0.000004 0.000007 -3.009891 -4.999981 -8.000072 -0.000014 -11.035104 56.374629 12.892943 120.709605 64.628192 -96.096356 0.000001 -0.000002 0.000002 57.174902 13.674224 -7.863056 0.000009 -0.000007 3.007289 -4.999675 7.999696 -0.000036 -73.598246 -166.474714 6.556851 179.999991 0.000005 -0.966002 103.613259 -4.988920 -5.469154 -0.000007 -0.000001 1.606400 80.747678 7.708247 -1.936231 27.659010 -7.350667 0.279089 -74.304781 164.785882 -4.607825 0.000013 0.000012 -0.804134 -77.849478 3.293119 3.944409 -0.000009 -0.000000 -1.682192 78.556444 -6.526186 -2.540908 30.242568 7.328055 -0.622694 
47.672596 -11.415415 75.509789 16.406190 -0.187102 -0.723852 2.809625 -0.180844 -0.105757 9.621809 -0.366042 -0.189510 11.266939 -0.368397 -0.185106 -20.350844 5.188203 1.065327 -4.610789 -2.790006 -0.491222 -9.906485 -50.812711 -11.183825 134.078061 -53.035719 114.231963 0.000001 0.000001 -0.000006 56.156077 -17.853414 8.669023 0.000002 0.000006 -3.009892 -4.999983 -8.000073 -0.000012 -11.052599 56.450028 12.918108 120.656248 64.478249 -96.207026 0.000001 0.000000 -0.000003 56.812250 13.787019 -7.877560 0.000011 -0.000005 3.007290 -4.999675 7.999695 -0.000039 -73.301385 -166.490669 6.536404 179.999991 0.000004 -0.963993 103.872595 -5.036220 -5.482925 -0.000006 -0.000002 1.597739 80.712543 7.707139 -1.924733 27.669416 -7.350664 0.280417 -73.995975 164.819869 -4.610796 0.000012 0.000011 -0.803315 -77.592663 3.346546 3.970630 -0.000008 -0.000001 -1.671791 78.526610 -6.526903 -2.539596 30.259439 7.327887 -0.625226 
47.679295 -11.472113 75.655693 16.349801 -0.198147 -0.723185 2.801675 -0.180078 -0.105699 9.605894 -0.364438 -0.189657 11.251033 -0.366801 -0.185272 -20.343075 5.202147 1.058732 -4.569360 -2.800644 -0.500464 -9.918960 -50.849061 -11.201768 133.990840 -52.876633 114.347025 0.000001 0.000001 -0.000008 55.715485 -17.952599 8.649335 0.000002 0.000008 -3.009890 -4.999981 -8.000071 -0.000011 -11.063932 56.522448 12.935739 120.608027 64.331503 -96.322511 0.000001 0.000002 -0.000003 56.451145 13.898457 -7.890404 0.000009 -0.000007 3.007289 -4.999676 7.999697 -0.000035 -73.004689 -166.506679 6.516888 179.999991 0.000005 -0.961999 104.133815 -5.083586 -5.495378 -0.000006 -0.000001 1.589020 80.676002 7.706158 -1.913140 27.679830 -7.350670 0.281760 -73.688404 164.854388 -4.612752 0.000011 0.000014 -0.802510 -77.334578 3.399814 3.996380 -0.000011 -0.000001 -1.661371 78.495560 -6.527682 -2.537965 30.276610 7.327720 -0.627752 
47.675400 -11.554918 75.811089 16.294705 -0.208291 -0.722009 2.793142 -0.179234 -0.105320 9.588845 -0.362672 -0.189211 11.233928 -0.365037 -0.184848 -20.330521 5.208182 1.051211 -4.531854 -2.802555 -0.508348 -9.930728 -50.894714 -11.219455 133.894807 -52.725871 114.453138 0.000001 -0.000000 -0.000004 55.274706 -18.051247 8.628930 0.000004 0.000008 -3.009887 -4.999981 -8.000075 -0.000013 -11.067699 56.591235 12.944090 120.566226 64.188882 -96.443876 0.000001 0.000002 -0.000001 56.092351 14.008276 -7.901485 0.000009 -0.000011 3.007288 -4.999678 7.999694 -0.000036 -72.708416 -166.522799 6.498034 179.999991 0.000005 -0.960004 104.396621 -5.131825 -5.509431 -0.000005 -0.000001 1.580219 80.638170 7.705105 -1.901260 27.690437 -7.350668 0.283114 -73.382309 164.889564 -4.614053 0.000016 0.000013 -0.801723 -77.075277 3.452808 4.021381 -0.000011 -0.000001 -1.650939 78.463109 -6.528570 -2.536421 30.293996 7.327575 -0.630223 
47.671196 -11.643917 75.976105 16.241223 -0.217294 -0.720238 2.783930 -0.178315 -0.104567 9.570439 -0.360754 -0.188065 11.215527 -0.363109 -0.183726 -20.312327 5.204942 1.042642 -4.498984 -2.794218 -0.514637 -9.941615 -50.951463 -11.236767 133.789377 -52.584206 114.550079 -0.000000 0.000001 -0.000008 54.833804 -18.149616 8.607869 0.000004 0.000007 -3.009890 -4.999981 -8.000074 -0.000013 -11.062525 56.655876 12.941468 120.531761 64.051055 -96.571922 0.000001 -0.000002 0.000001 55.736560 14.116200 -7.910810 0.000008 -0.000007 3.007290 -4.999678 7.999693 -0.000039 -72.413365 -166.538549 6.478040 179.999991 0.000003 -0.958994 104.661099 -5.180748 -5.523069 -0.000007 -0.000001 1.571340 80.598773 7.704129 -1.889371 27.701354 -7.350660 0.284513 -73.078386 164.925272 -4.613732 0.000014 0.000011 -0.800949 -76.814937 3.505366 4.045553 -0.000011 -0.000000 -1.640511 78.429293 -6.529476 -2.534962 30.311761 7.327425 -0.632662 
